<?xml version="1.0" encoding="utf-8"?>
<svg width="135" height="30" viewBox="0 0 135 30" fill="none" xmlns="http://www.w3.org/2000/svg" xmlns:bx="https://boxy-svg.com">
  <defs>
    <linearGradient id="color-0" gradientUnits="userSpaceOnUse" bx:pinned="true" gradientTransform="matrix(1.551276, 0, 0, 1.584754, -37.210154, -8.771317)">
      <title>1</title>
      <stop style="stop-color: rgb(201, 63, 29);"/>
    </linearGradient>
  </defs>
  <path d="M 126.313 25.719 C 126.313 24.474 126.726 23.431 127.551 22.587 C 128.376 21.704 129.378 21.263 130.557 21.263 C 131.894 21.263 132.955 21.724 133.741 22.648 C 134.566 23.531 134.978 24.555 134.978 25.719 C 134.978 26.923 134.566 27.967 133.741 28.851 C 132.955 29.733 131.894 30.175 130.557 30.175 C 129.378 30.175 128.376 29.755 127.551 28.911 C 126.726 28.027 126.313 26.963 126.313 25.719 Z" style="fill: rgb(255, 255, 255);"/>
  <path d="M 18.561 30.175 C 18.482 29.533 18.482 28.911 18.561 28.308 C 19.779 28.228 20.684 28.107 21.273 27.948 C 21.863 27.746 22.255 27.345 22.452 26.743 C 22.649 26.141 22.747 25.178 22.747 23.853 L 22.747 11.688 C 22.747 9.279 22.373 7.492 21.626 6.328 C 20.919 5.124 19.485 4.522 17.323 4.522 C 16.183 4.522 15.084 4.742 14.023 5.184 C 12.961 5.585 11.803 6.368 10.544 7.533 L 10.544 23.25 C 10.544 24.816 10.624 25.94 10.78 26.623 C 10.977 27.304 11.37 27.746 11.96 27.948 C 12.549 28.107 13.471 28.228 14.73 28.308 C 14.809 28.911 14.809 29.533 14.73 30.175 C 13.629 30.175 12.47 30.155 11.251 30.115 C 10.072 30.074 8.796 30.055 7.42 30.055 C 6.162 30.055 4.924 30.074 3.706 30.115 C 2.488 30.155 1.289 30.175 0.11 30.175 C -0.008 29.533 -0.008 28.911 0.11 28.308 C 1.446 28.228 2.43 28.107 3.057 27.948 C 3.686 27.746 4.099 27.345 4.296 26.743 C 4.493 26.141 4.59 25.178 4.59 23.853 L 4.59 10.363 C 4.59 8.798 4.511 7.633 4.355 6.87 C 4.237 6.106 3.863 5.585 3.234 5.304 C 2.645 4.983 1.623 4.721 0.169 4.522 C 0.052 3.959 0.052 3.437 0.169 2.956 C 3.549 2.273 6.653 1.349 9.483 0.186 L 10.485 0.547 L 10.485 5.063 C 12.292 3.377 14.061 2.192 15.791 1.511 C 17.52 0.828 19.171 0.486 20.742 0.486 C 23.336 0.486 25.32 1.27 26.696 2.836 C 28.072 4.401 28.759 6.648 28.759 9.58 L 28.759 23.25 C 28.759 24.816 28.838 25.94 28.995 26.623 C 29.192 27.304 29.585 27.746 30.174 27.948 C 30.764 28.107 31.707 28.228 33.004 28.308 C 33.083 28.911 33.083 29.533 33.004 30.175 C 31.825 30.175 30.666 30.155 29.525 30.115 C 28.426 30.074 27.129 30.055 25.635 30.055 C 24.181 30.055 22.904 30.074 21.803 30.115 C 20.742 30.155 19.662 30.175 18.561 30.175 Z" style="fill: url(&quot;#color-0&quot;);"/>
  <path d="M 50.538 30.175 C 47.668 30.175 45.153 29.553 42.992 28.308 C 40.87 27.024 39.219 25.277 38.04 23.07 C 36.861 20.821 36.272 18.252 36.272 15.361 C 36.272 12.229 36.881 9.5 38.1 7.172 C 39.356 4.841 41.106 3.036 43.346 1.751 C 45.587 0.466 48.16 -0.175 51.069 -0.175 C 53.936 -0.175 56.433 0.466 58.554 1.751 C 60.677 3.036 62.328 4.802 63.506 7.051 C 64.685 9.298 65.275 11.848 65.275 14.699 C 65.275 17.629 64.646 20.278 63.389 22.648 C 62.171 24.976 60.462 26.822 58.26 28.189 C 56.059 29.514 53.485 30.175 50.538 30.175 Z M 42.933 14.639 C 42.933 18.734 43.582 21.986 44.878 24.394 C 46.214 26.762 48.199 27.948 50.832 27.948 C 53.347 27.948 55.272 26.822 56.609 24.575 C 57.945 22.287 58.614 19.235 58.614 15.421 C 58.614 11.366 57.945 8.135 56.609 5.726 C 55.272 3.317 53.327 2.113 50.774 2.113 C 48.257 2.113 46.312 3.215 44.938 5.425 C 43.601 7.633 42.933 10.704 42.933 14.639 Z" style="fill: rgb(255, 255, 255);"/>
  <path d="M 82.75 30.175 C 79.88 30.175 77.366 29.553 75.205 28.308 C 73.083 27.024 71.432 25.277 70.253 23.07 C 69.074 20.821 68.485 18.252 68.485 15.361 C 68.485 12.229 69.092 9.5 70.312 7.172 C 71.569 4.841 73.318 3.036 75.558 1.751 C 77.798 0.466 80.372 -0.175 83.28 -0.175 C 86.149 -0.175 88.645 0.466 90.767 1.751 C 92.89 3.036 94.539 4.802 95.718 7.051 C 96.898 9.298 97.488 11.848 97.488 14.699 C 97.488 17.629 96.859 20.278 95.6 22.648 C 94.383 24.976 92.673 26.822 90.472 28.189 C 88.271 29.514 85.697 30.175 82.75 30.175 Z M 75.146 14.639 C 75.146 18.734 75.794 21.986 77.091 24.394 C 78.427 26.762 80.411 27.948 83.045 27.948 C 85.56 27.948 87.485 26.822 88.822 24.575 C 90.158 22.287 90.826 19.235 90.826 15.421 C 90.826 11.366 90.158 8.135 88.822 5.726 C 87.485 3.317 85.54 2.113 82.986 2.113 C 80.47 2.113 78.524 3.215 77.149 5.425 C 75.813 7.633 75.146 10.704 75.146 14.639 Z" style="fill: rgb(255, 255, 255);"/>
  <path d="M 127.371 2.836 C 129.359 3.983 123.047 7.492 122.301 6.328 C 121.594 5.124 120.159 4.522 117.998 4.522 C 116.858 4.522 115.758 4.742 114.697 5.184 C 113.636 5.585 112.477 6.368 111.219 7.533 L 111.219 23.25 C 111.219 24.816 111.298 25.94 111.454 26.623 C 111.651 27.304 112.044 27.746 112.634 27.948 C 113.224 28.107 114.146 28.228 115.404 28.308 C 115.484 28.911 115.484 29.533 115.404 30.175 C 114.304 30.175 113.144 30.155 111.926 30.115 C 110.747 30.074 109.471 30.055 108.095 30.055 C 106.836 30.055 105.599 30.074 104.381 30.115 C 103.163 30.155 101.964 30.175 100.785 30.175 C 100.667 29.533 100.667 28.911 100.785 28.308 C 102.121 28.228 103.104 28.107 103.732 27.948 C 104.361 27.746 104.773 27.345 104.97 26.743 C 105.168 26.141 105.265 25.178 105.265 23.853 L 105.265 10.363 C 105.265 8.798 105.186 7.633 105.03 6.87 C 104.911 6.106 104.538 5.585 103.909 5.304 C 103.32 4.983 102.298 4.721 100.844 4.522 C 100.727 3.959 100.727 3.437 100.844 2.956 C 104.224 2.273 107.328 1.349 110.158 0.186 L 111.16 0.547 L 111.16 5.063 C 112.967 3.377 114.736 2.192 116.466 1.511 C 118.195 0.828 119.845 0.486 121.417 0.486 C 124.011 0.486 125.382 1.688 127.371 2.836 Z" style="fill: rgb(255, 255, 255);"/>
</svg>